<svg viewBox="0 0 1000 1000" xmlns="http://www.w3.org/2000/svg"><path d="m257.29 69.34s-11.3 3.33-8.52 11.22 12.52 14.84 8.52 23.87-35.29 81.67-27.29 130.33 67.2 108.66 105.09 128.81c0 0 15.31 28.85 37.38 37.75 0 0 12.13 47.37-1.42 92.21s-113.51 2.06-130.61 84.16c-16.32 78.36 93.17 72.45 220.63 133.55l-128.93-87.75 73.57 29s47.16 17.1 89.56-4.08a17.5 17.5 0 0 1 22.55 6.3c16.36 25.66 39.17 81.36 114.59 87.81 0 0 .56 36.27 18.17 58.78s74.55 86.57 81.8 115.22c0 0-6 15.16 2.61 19.16s34-3.66 34-3.66l-24.38-2.59-4.75-21-44.31-179.43-93.37-180.49-97.18-172.62-4-62.24 111.87 3.1 31.13-81.75 3.23-22.62-11.89-15.3s-7.93 4.31-6.43 9.91 5.72 5.33 2.76 11.6-40.43 68.28-40.43 68.28l-51.62 11.67-65.15-23.15-13.79-9.59-24 10.34-59 16.77-22-20.43-91.6-31.7 7.1-157z" fill="#e2e2e2"/><g fill="#ed8b7b"><path d="m491.74 241.05a10.1 10.1 0 0 0 -2.36 4.06 9.61 9.61 0 0 0 -.45 2.33l-.58 8.12a9.9 9.9 0 0 1 -11.64 9l-.7-.13-7.46-1.35 1.8 4.49 4.59-1c-3.08 5.56-8 24.63-18.17 25.83-31.42 3.72-29.46-16.54-30.09-17.07l2.66-.22 4-13.53s-11.34-33.58-9.19-34.09c3.49-.86 33.15-13.05 32.5-14.87-4.8-13.39 10.84-22.76 10.84-22.76 5.76 1.83 13.5 5.72 15.91 13.69 3.6 11.85-.4 21.23 8.37 30.45a5 5 0 0 1 1.25 2.34 5.15 5.15 0 0 1 -1.28 4.71z"/><path d="m417.46 275.72a113.57 113.57 0 0 1 -20.63-2.13l-27.46-7.92c-42.48-16-78.25-45.45-78.25-45.45l-15.51-127.16-11.08.3-14.44 59v.1l-2.78 11.37-3.52 14.36a115 115 0 0 0 24.1 102c23.7 27.72 57.41 60.44 96.93 79.56l22.33 37.36s55.8-19.15 55.28-59.22c8.83-26.46-20.24-50.89-24.97-62.17z"/><path d="m652.26 215.3v87.63a41.13 41.13 0 0 1 -42 41.12l-72.07-1.51a197.83 197.83 0 0 0 1.4 43.19c-20.86 14.64-71.19 16.08-86.69-29.64-13.71-40.43 7-74.94 30.5-91.21 23.93-4.38 50.44-4.63 98.41 14.11 8.16 3.19 16.93 6.92 26.42 11.28l32.95-75.27z"/><path d="m466.33 699.72c4.14 5.55 2.73 9.49-5.24 11.53l-100-41.85c.86-2.73-29.31-56.69 22.75-51 .63.7 24.77 8.73 25.37 9.47 4.17 5.16-1.82 20.83-1.82 20.83 19.21 21.96 43.61 46.41 58.94 51.02z"/><path d="m749.2 916.57c-2.58 10.64-7.32 7.37-12.68 0 0 0-27.58-72.85-49.31-98.38 8-23.27 23.38-32.79 48.61-8.25 10.09 58.76 13.38 106.63 13.38 106.63z"/></g><path d="m735.82 809.94c-21.42.12-37.64 4.16-48.61 8.25q-.76-.91-1.53-1.74c-15.59-16.89-25.17-42.78-27.93-63.24-.37-2.72-.62-5.35-.74-7.84a52.84 52.84 0 0 1 .8-13.44h-.07c-2.74-.47-91.74-15.48-145.69-97.33 0 0-51.62 25.14-104.66 14.11-5.24-6-10.09-11.78-14.26-16.94-.6-.74-1.21-1.46-1.84-2.16a77 77 0 0 0 -27.26 32 72.26 72.26 0 0 0 -2.94 7.76l-75.26-31.51a47.81 47.81 0 0 1 -28.83-37.05c-3.54-23 9-48.11 35.92-55.31a518.68 518.68 0 0 1 56-11.89c21.81-3.3 43.63-4.84 64.14-3.55 29.1-34.84 130.45-38.19 199.78-4.55 38.16 57.88 83.16 130.21 100.29 186 9.87 32.13 17.27 66.85 22.69 98.43z" fill="#fe9191"/><path d="m769 932.07-28 2.57a5.47 5.47 0 0 1 -6-6.14l1.49-11.93h12.71l20.74 10.77a2.51 2.51 0 0 1 -.94 4.73z" fill="#9c297f"/><path d="m480.94 711.24-13.94 24.47a2.51 2.51 0 0 1 -4.69-1.12l-1.21-23.34 5.24-11.53 11.48 3.57a5.48 5.48 0 0 1 3.12 7.95z" fill="#9c297f"/><g fill="#fd5d5d"><path d="m657.74 731.91c-2.74-.45-91.74-15.46-145.69-97.31 0 0-51.62 25.14-104.66 14.11-5.24-6-10.09-11.78-14.26-16.94-.6-.74-1.21-1.46-1.84-2.16 0 0-9.17-16.39-23.87-29.24a3 3 0 0 1 3-5.06c13.83 5.08 31.54 13.55 40.71 25.88 16.39 22 78.9 25.28 98.54-14.26s44.92-4.54 57.24 26.58 52.09 91.73 90.83 98.4z"/><path d="m612.82 525.51c-66 34.06-154.56 46.89-199.11 25.7a187.81 187.81 0 0 0 -64.81-17.6c21.81-3.3 43.63-4.84 64.14-3.55-.04 0 61.48 44.41 199.78-4.55z"/><path d="m364 661.63a72.26 72.26 0 0 0 -2.94 7.76l-75.26-31.51a47.81 47.81 0 0 1 -28.8-37.07c4.93 8.81 14.41 18.25 32.23 25.56 17.26 7.08 45.85 20.84 74.77 35.26z"/></g><path d="m461.07 711.24-100-41.85a72.26 72.26 0 0 1 2.94-7.76c47.45 23.61 95.85 48.98 97.06 49.61z" fill="#e06855"/><path d="m669.63 744.73-11.88 8.48c-.37-2.72-.62-5.35-.74-7.84a52.84 52.84 0 0 1 .8-13.44l9.65 2.15a6 6 0 0 1 2.17 10.65z" fill="#fd5d5d"/><path d="m465.32 225.67c-3.9-1.74-8.61-2.92-11.27-.26a9 9 0 0 0 -2.28 6.75 8.32 8.32 0 0 1 -1.16 4.54 27.35 27.35 0 0 0 -3.78 15.94 7.43 7.43 0 0 1 -5.69 7.62 55.84 55.84 0 0 1 -7.84 1.33 59.68 59.68 0 0 1 -6 .3c-12.5 0-21.21-.82-21.71-11-.34-7.05-.13-12.76-.4-16.7 3.18-1.13 1.66-11.14-.06-13.13a2.78 2.78 0 0 0 -1.67-.81c.19-6.58 2.42-25.22 21.44-31.92a80.63 80.63 0 0 1 13.21-3.46c16.28-2.82 28.34.61 29.43 5 0 0-4 19.66.82 33a2.22 2.22 0 0 1 -3.04 2.8z" fill="#ca2374"/><path d="m423.25 375.42c-10.53 12.64-26.72 17.57-39.41 14.75-10.41-2.3-18.46-9.81-19.11-22.54a65.9 65.9 0 0 1 .06-7.84 95.91 95.91 0 0 1 2.36-15.18c4-17.61 10.79-34.6 4.71-61.5a102.86 102.86 0 0 1 -2.49-17.41c-1.33-25.41 9.15-41.17 25.34-41.47a25.67 25.67 0 0 1 3.58.17 44.13 44.13 0 0 1 4.7 4.33c.27.42-3.25 5.05-2.89 5.33-2.11 3-4.75 9.53-4.52 22.89a142.65 142.65 0 0 0 1.25 16.67c4 29.77 16.55 50.49 24.54 66.71 6.95 14.09 10.46 24.8 1.88 35.09z" fill="#ca2374"/><path d="m612.82 525.51c-45.37 16.07-82.48 22.08-111.86 22.9-60.16 1.7-87.91-18.35-87.91-18.35 6.08-59.84-18.54-118-29.2-139.89 12.69 2.82 28.88-2.11 39.41-14.75 8.58-10.29 5.07-21-1.88-35.12 8.86-26.5.82-53.35-3.91-64.58 2 0 4.08 0 6.1-.15q1.57-.09 3.12-.21c.63.53 1.34 1.09 2.12 1.64a29.43 29.43 0 0 0 15 5.49 34.56 34.56 0 0 0 12.83-1.56c9.75-3 15.21-8.78 18.29-14.34 2.81-.62 5.61-1.2 8.46-1.72-11.63 14.24-30.62 45.44-16.91 85.87 15.5 45.72 52.24 49.62 73.1 35 2.34 16.83 7.25 36.29 17.17 53.92 9.55 16.94 31.37 48.34 56.07 85.85z" fill="#e4406f"/><path d="m661.79 200.1-9.53 15.2c-3.77 4.36-7.47 4.45-11.08-.3l-5.32-12.57a7 7 0 0 1 3-8.77l1.36-.78a7.17 7.17 0 0 0 3.17-3.77l.62-1.74a3.5 3.5 0 0 1 5-1.88l10.56 5.79a6.28 6.28 0 0 1 2.22 8.82z" fill="#ed8b7b"/><path d="m280.93 80.48-5.32 12.58c-3.51 6.39-7.2 6.67-11.08.3l-9.53-15.2a6.27 6.27 0 0 1 2.3-8.82l10.56-5.79a3.48 3.48 0 0 1 5 1.87l.63 1.74a7.14 7.14 0 0 0 3.17 3.78l1.36.77a7 7 0 0 1 2.91 8.77z" fill="#ed8b7b"/><g fill="#e06855"><path d="m421.37 340.3c-8-16.22-20.54-36.94-24.54-66.71a113.57 113.57 0 0 0 20.63 2.13c4.73 11.28 12.77 38.08 3.91 64.58z"/><path d="m491.74 241.05a10.1 10.1 0 0 0 -2.36 4.06c-2.44-.4-4.62-3.1-.83-4.22a6 6 0 0 0 4.47-4.51 5.15 5.15 0 0 1 -1.28 4.67z"/><path d="m468.55 263.12-3.53-1a1.19 1.19 0 0 0 -.87 2.2l6.2 3.27z"/><path d="m469.46 240.75c-13.75 6.18-33.45 27.48-25.64 41.75a29.43 29.43 0 0 1 -15-5.49c-.78-.55-1.49-1.11-2.12-1.64l2.66-.22 4-13.53a55.42 55.42 0 0 0 7.83-1.33 7.42 7.42 0 0 0 5.7-7.62 27.3 27.3 0 0 1 3.79-15.95 7.75 7.75 0 0 0 1.17-4.34 9.1 9.1 0 0 1 2.27-7c2.66-2.66 7.37-1.48 11.27.26a2.22 2.22 0 0 0 3-2.76c-4.8-13.39-.82-33-.82-33s-1.37 13.88 5.57 22.23 10.33 22.34-3.68 28.64z"/></g><path d="m450.61 236.7a27.35 27.35 0 0 0 -3.78 15.94 7.43 7.43 0 0 1 -5.69 7.62 55.84 55.84 0 0 1 -7.84 1.33 59.68 59.68 0 0 1 -6 .3c-12.5 0-21.21-.82-21.71-11-.34-7.05-.13-12.76-.4-16.7-1.73-2.09-3.5-9.07-3.5-9.07-.38-.43 1.77-4.87 1.77-4.87.19-6.58 2.42-25.22 21.44-31.92a80.63 80.63 0 0 1 13.21-3.46c-7 4.23-15.64 11.59-12.71 21.07 4.67 15.31 27.69 11.33 25.21 30.76z" fill="#b9175b"/><path d="m423.25 375.42c-10.53 12.64-26.72 17.57-39.41 14.75-10.41-2.3-18.46-9.81-19.11-22.54a65.9 65.9 0 0 1 .06-7.84 95.91 95.91 0 0 1 2.36-15.18c-.61 10.71 13.57 24.49 33.49 8.05s-11.81-52.81-16.8-80.15c-3.23-17.71 2.55-30 7-36.42a21.83 21.83 0 0 0 3.8-11.18c0-.24 0-.48 0-.71a25.67 25.67 0 0 1 3.58.17c-.4 3.11.22 7.59.88 8.61a4.12 4.12 0 0 0 .93 1.05c-2.11 3-4.75 9.53-4.52 22.89a142.65 142.65 0 0 0 1.25 16.67c4 29.77 16.55 50.49 24.54 66.71 7.02 14.12 10.53 24.83 1.95 35.12z" fill="#b9175b"/><g fill="#e06855"><path d="m364.79 359.79c-39.52-19.12-73.23-51.84-96.93-79.56a115 115 0 0 1 -24.1-102l3.52-14.36c-3.74 19.36-6.78 58.39 22.87 79.06 40.44 28.2 69.14 18.95 99.22 22.78a102.86 102.86 0 0 0 2.49 17.41c7.79 34.41-5.53 52.6-7.07 76.67z"/><path d="m539.59 385.73c-15.31-4.43-24.09-17.15-28.94-28a11.59 11.59 0 0 1 11.35-16.28l16.15 1.09a197.83 197.83 0 0 0 1.44 43.19z"/><path d="m608.23 290.27-3.36 6a7.47 7.47 0 0 1 -13 .09l-10.06-17.36c8.19 3.18 16.93 6.91 26.42 11.27z"/></g><path d="m501 548.41c-60.16 1.7-87.91-18.35-87.91-18.35 6.08-59.84-18.54-118-29.2-139.89 12.69 2.82 28.88-2.11 39.41-14.75 8.58-10.29 5.07-21-1.88-35.12 8.86-26.5.82-53.35-3.91-64.58 2 0 4.08 0 6.1-.15q1.57-.09 3.12-.21c.63.53 1.34 1.09 2.12 1.64a29.43 29.43 0 0 0 15 5.49s15.08 21.78 4.38 58.92-41.67 177.59 52.77 207z" fill="#d0183b"/><path d="m405.14 234.2c-2.4.85-4 .68-5-.17a4.12 4.12 0 0 1 -.93-1.05c-.66-1-1.28-5.5-.88-8.61a5.25 5.25 0 0 1 .88-2.6 4.86 4.86 0 0 1 4.24-1.51 2.78 2.78 0 0 1 1.67.81c1.68 1.99 3.2 12 .02 13.13z" fill="#9c297f"/><path d="m405.14 234.2c-2.4.85-4 .68-5-.17a4.12 4.12 0 0 1 -.93-1.05c-.66-1-1.28-5.5-.88-8.61 0 0 2.92 6 5.51 3.5s-.39-7.61-.39-7.61a2.78 2.78 0 0 1 1.67.81c1.68 1.99 3.2 12 .02 13.13z" fill="#690d4a"/><g fill="#fe9191"><rect height="7.57" rx="2.4" transform="matrix(.70710678 -.70710678 .70710678 .70710678 -429.86 805.84)" width="9.28" x="753.16" y="918.02"/><path d="m749.2 921.81a1 1 0 0 1 -.64-1.77l5.1-4.24a1 1 0 1 1 1.28 1.54l-5.1 4.23a1 1 0 0 1 -.64.24z"/><rect height="7.57" rx="2.4" transform="matrix(.99349258 -.11389683 .11389683 .99349258 -79.23 57.45)" width="9.28" x="458.22" y="717.93"/><path d="m457.75 716.4a1 1 0 0 1 -.48-.7 1 1 0 0 1 .83-1.15l6.54-1.06a1 1 0 1 1 .32 2l-6.54 1.07a1 1 0 0 1 -.67-.16z"/></g></svg>