<svg width="112" height="100" viewBox="0 0 112 100" fill="none" xmlns="http://www.w3.org/2000/svg">
<path d="M91.5 40C90.6136 58.9091 93.2463 59.5 72 59.5" stroke="black"/>
<path d="M111 59.5C92.0909 58.6136 91.5 61.2463 91.5 40" stroke="black"/>
<path d="M91.5 79C92.3864 60.0909 89.7537 59.5 111 59.5" stroke="black"/>
<path d="M72 59.5C90.9091 60.3864 91.5 57.7537 91.5 79" stroke="black"/>
<path d="M62 1C61.5455 10.697 62.8955 11 52 11" stroke="black"/>
<path d="M72 11C62.303 10.5455 62 11.8955 62 1" stroke="black"/>
<path d="M62 21C62.4545 11.303 61.1045 11 72 11" stroke="black"/>
<path d="M52 11C61.697 11.4545 62 10.1045 62 21" stroke="black"/>
<path d="M25.5 50C24.3864 73.7576 27.694 74.5 1 74.5" stroke="black"/>
<path d="M50 74.5C26.2424 73.3864 25.5 76.694 25.5 50" stroke="black"/>
<path d="M25.5 99C26.6136 75.2424 23.306 74.5 50 74.5" stroke="black"/>
<path d="M1 74.5C24.7576 75.6136 25.5 72.306 25.5 99" stroke="black"/>
</svg>
